<svg xmlns="http://www.w3.org/2000/svg"  viewBox="0 0 32 32" width="128px" height="128px" baseProfile="basic"><circle cx="16" cy="16" r="12" fill="none" stroke="#000" stroke-miterlimit="10" stroke-width="2"/><path fill="none" stroke="#000" stroke-linecap="round" stroke-linejoin="round" stroke-miterlimit="10" stroke-width="2" d="M14.024,27.838c-0.293-2.016-0.491-4.288-0.349-6.611c-1.022,0-1.99-0.14-2.753-0.477c-0.667-1.333-0.667-2.167,0-3.5 c1.005-0.416,1.866-0.5,2.765-0.5l0.041-0.928C13.923,12.326,16.467,10,19.923,10h0.5c0.705,1.216,0.752,2.739,0,4h-0.5 c-1.105,0-1.867,0.904-1.867,2.008l0.002,0.73c1.479,0.012,2.219,0.142,3.493,0.493c0.135,1.215-0.234,2.759-1.051,3.519 c-0.696,0.263-1.287,0.342-2.362,0.342c0.124,2.108,0.008,4.716-0.323,6.771"/></svg>