<svg xmlns="http://www.w3.org/2000/svg"  viewBox="0 0 32 32" width="128px" height="128px"><path d="M 16 3.9980469 C 13.080861 3.9980469 10.161004 4.3447693 7.2480469 5.0371094 C 6.1507011 5.2968904 5.2962649 6.1524002 5.0371094 7.25 C 3.6528787 13.075289 3.652579 18.92667 5.0371094 24.751953 C 5.2967541 25.848723 6.1512769 26.703246 7.2480469 26.962891 C 13.073961 28.347571 18.926039 28.347571 24.751953 26.962891 C 25.848723 26.703246 26.703246 25.848723 26.962891 24.751953 L 26.962891 24.75 C 28.346971 18.925342 28.346971 13.074658 26.962891 7.25 L 26.962891 7.2480469 C 26.703246 6.1512738 25.848723 5.2967541 24.751953 5.0371094 C 21.838996 4.3447693 18.919139 3.9980469 16 3.9980469 z M 16 5.9960938 C 18.760861 5.9960936 21.522019 6.324762 24.289062 6.9824219 L 24.291016 6.9824219 C 24.63284 7.0631309 24.93687 7.3671602 25.017578 7.7089844 L 25.017578 7.7109375 C 26.332898 13.245024 26.332898 18.754976 25.017578 24.289062 L 25.017578 24.291016 C 24.936868 24.63284 24.63284 24.93687 24.291016 25.017578 L 24.289062 25.017578 C 18.754976 26.332898 13.245024 26.332898 7.7109375 25.017578 L 7.7089844 25.017578 C 7.3671571 24.936827 7.0631304 24.63284 6.9824219 24.291016 L 6.9824219 24.289062 C 5.6671021 18.754977 5.6671021 13.245024 6.9824219 7.7109375 L 6.9824219 7.7089844 C 7.0631304 7.3672031 7.3671602 7.0631304 7.7089844 6.9824219 L 7.7109375 6.9824219 C 10.477984 6.324762 13.239139 5.9960938 16 5.9960938 z M 19.955078 11.044922 A 0.94509449 0.94509449 0 0 0 19.253906 11.421875 C 18.51969 12.369251 17.745954 13.176737 16.96875 13.966797 C 16.163293 13.061359 15.23097 12.06319 14.755859 11.431641 A 0.94509449 0.94509449 0 0 0 14 11.054688 L 10 11.054688 A 0.94509449 0.94509449 0 0 0 9.2734375 12.605469 C 10.854818 14.500882 11.946383 15.92635 13.125 17.324219 C 12.258654 17.971994 11.383771 18.604011 10.472656 19.216797 A 0.94509449 0.94509449 0 1 0 11.527344 20.783203 C 12.51146 20.121319 13.482877 19.426645 14.445312 18.699219 C 15.060783 19.351757 15.514672 19.942941 16.371094 20.705078 A 0.94509449 0.94509449 0 0 0 17 20.945312 L 22 20.945312 A 0.94509449 0.94509449 0 0 0 22.480469 19.1875 C 21.366887 18.528441 19.757861 17.00981 18.216797 15.396484 C 19.076332 14.530265 19.931209 13.629589 20.746094 12.578125 A 0.94509449 0.94509449 0 0 0 19.955078 11.044922 z M 11.962891 12.945312 L 13.566406 12.945312 C 14.941824 14.728628 17.217103 17.142334 19.466797 19.054688 L 17.398438 19.054688 C 15.013372 16.88888 13.729546 15.181273 11.962891 12.945312 z"/></svg>