<svg xmlns="http://www.w3.org/2000/svg"  viewBox="0 0 32 32" width="128px" height="128px"><path d="M 16.007812 3.9785156 C 12.192056 3.9794085 8.3764118 4.4707697 4.6816406 5.4492188 A 1.0001 1.0001 0 0 0 4.6796875 5.4492188 C 3.748198 5.6968099 2.9891709 6.3790652 2.6503906 7.2890625 C 0.46393656 13.16234 0.36814917 18.816527 2.6445312 24.746094 A 1.0001 1.0001 0 0 0 2.6464844 24.748047 C 2.9920523 25.646219 3.748247 26.313262 4.671875 26.556641 C 12.102446 28.512485 19.888996 28.507822 27.330078 26.542969 C 28.253314 26.298583 29.011395 25.629806 29.355469 24.728516 C 31.591343 18.866593 31.588306 13.124258 29.351562 7.2617188 C 29.008802 6.3628832 28.254175 5.6941159 27.332031 5.4492188 C 23.637863 4.4669394 19.823569 3.9776228 16.007812 3.9785156 z M 16.007812 5.9804688 C 19.652307 5.9796116 23.295528 6.4460918 26.818359 7.3828125 C 27.116216 7.4619155 27.377133 7.6933959 27.484375 7.9746094 C 29.569626 13.44007 29.570407 18.551548 27.486328 24.015625 C 27.378402 24.298334 27.119123 24.529761 26.818359 24.609375 C 19.710064 26.486356 12.278507 26.490714 5.1816406 24.623047 L 5.1796875 24.623047 C 4.8818725 24.54405 4.6199737 24.310664 4.5117188 24.029297 C 2.390336 18.503476 2.4725499 13.494399 4.5234375 7.9863281 C 4.6306572 7.6983254 4.8908457 7.4632213 5.1933594 7.3828125 C 8.7185882 6.4492616 12.36332 5.9813259 16.007812 5.9804688 z M 13.652344 10.005859 C 12.648521 10.057685 11.71839 10.716182 11.458984 11.757812 C 10.830668 14.277671 10.830668 17.72233 11.458984 20.242188 C 11.805052 21.631811 13.341817 22.340543 14.658203 21.833984 C 16.871868 20.983238 19.567543 19.340743 21.320312 17.605469 C 22.197688 16.738417 22.197688 15.261583 21.320312 14.394531 C 19.567 12.660893 16.871549 11.015764 14.658203 10.164062 C 14.329124 10.038006 13.986951 9.9885842 13.652344 10.005859 z M 13.75 11.998047 C 13.810066 11.996258 13.874986 12.005807 13.941406 12.03125 C 15.83406 12.759548 18.459376 14.378045 19.914062 15.816406 C 20.056688 15.957354 20.056688 16.042646 19.914062 16.183594 C 18.460832 17.622319 15.833741 19.239543 13.941406 19.966797 C 13.677792 20.068238 13.440368 19.926187 13.398438 19.757812 C 12.882753 17.68967 12.882753 14.310329 13.398438 12.242188 C 13.430035 12.115318 13.569803 12.003415 13.75 11.998047 z"/></svg>