<svg xmlns="http://www.w3.org/2000/svg" xmlns:xlink="http://www.w3.org/1999/xlink" width="500" zoomAndPan="magnify" viewBox="0 0 375 374.999991" height="500" preserveAspectRatio="xMidYMid meet" version="1.0"><path fill="#ef7122" d="M 348.457031 346.527344 C 346.296875 349.179688 343.023438 350.933594 339.339844 350.933594 C 332.847656 350.933594 327.578125 345.664062 327.578125 339.15625 C 327.578125 335.792969 329.007812 332.769531 331.285156 330.628906 C 343.828125 317.910156 351.566406 300.503906 351.566406 281.253906 L 351.566406 175.78125 C 351.566406 169.316406 346.308594 164.0625 339.847656 164.0625 L 292.96875 164.0625 C 276.792969 164.0625 263.664062 150.945312 263.664062 134.757812 L 263.664062 93.753906 C 263.664062 54.910156 232.1875 23.4375 193.359375 23.4375 L 93.746094 23.4375 C 54.910156 23.4375 23.441406 54.910156 23.441406 93.753906 L 23.441406 281.253906 C 23.441406 320.089844 54.910156 351.5625 93.746094 351.5625 L 222.65625 351.5625 C 229.121094 351.5625 234.378906 356.816406 234.378906 363.28125 C 234.378906 369.757812 229.121094 375 222.65625 375 L 93.746094 375 C 41.96875 375 0 333.03125 0 281.253906 L 0 93.753906 C 0 41.96875 41.96875 0 93.746094 0 L 193.359375 0 C 245.144531 0 287.109375 41.96875 287.109375 93.753906 L 287.109375 128.910156 C 287.109375 135.375 292.351562 140.617188 298.828125 140.617188 L 345.710938 140.617188 C 361.886719 140.617188 375 153.742188 375 169.921875 L 375 281.253906 C 375 306.664062 364.867188 329.644531 348.457031 346.527344 Z M 105.46875 140.617188 C 98.992188 140.617188 93.746094 135.375 93.746094 128.910156 C 93.746094 122.433594 98.992188 117.191406 105.46875 117.191406 L 175.777344 117.191406 C 182.257812 117.191406 187.5 122.433594 187.5 128.910156 C 187.5 135.375 182.257812 140.617188 175.777344 140.617188 Z M 93.746094 246.089844 C 93.746094 239.625 98.992188 234.382812 105.46875 234.382812 L 246.085938 234.382812 C 252.566406 234.382812 257.804688 239.625 257.804688 246.089844 C 257.804688 252.566406 252.566406 257.808594 246.085938 257.808594 L 105.46875 257.808594 C 98.992188 257.808594 93.746094 252.566406 93.746094 246.089844 Z M 269.53125 351.5625 C 276.007812 351.5625 281.25 356.816406 281.25 363.28125 C 281.25 369.757812 276.007812 375 269.53125 375 C 263.066406 375 257.804688 369.757812 257.804688 363.28125 C 257.804688 356.816406 263.066406 351.5625 269.53125 351.5625 Z M 269.53125 351.5625 " fill-opacity="1" fill-rule="evenodd"/></svg>